<svg width="18" height="14" viewBox="0 0 18 14" fill="none" xmlns="http://www.w3.org/2000/svg">
<g id="Group 4249">
<path id="Vector" d="M16.524 13.6666H12.9328C13.0734 13.4218 13.1568 13.138 13.1568 12.8333V12.625C13.1568 11.0442 12.4511 9.62496 11.3391 8.67183C11.4016 8.66923 11.4615 8.66663 11.524 8.66663H13.1229C15.4432 8.66663 17.3234 10.5468 17.3234 12.8671C17.3234 13.3099 16.9641 13.6666 16.524 13.6666ZM11.9068 6.99996C11.0995 6.99996 10.3703 6.67183 9.84167 6.14319C10.3547 5.45048 10.6568 4.59371 10.6568 3.66663C10.6568 2.96871 10.4849 2.30986 10.1802 1.73173C10.6646 1.37756 11.2609 1.16663 11.9068 1.16663C13.5188 1.16663 14.8234 2.47131 14.8234 4.08329C14.8234 5.69527 13.5188 6.99996 11.9068 6.99996Z" fill="#919EAB"/>
<path id="Vector_2" d="M9.84172 3.66665C9.84172 5.50779 8.34953 6.99998 6.50838 6.99998C4.66724 6.99998 3.17505 5.50779 3.17505 3.66665C3.17505 1.8255 4.66724 0.333313 6.50838 0.333313C8.34953 0.333313 9.84172 1.8255 9.84172 3.66665ZM0.675049 12.8932C0.675049 10.3281 2.75317 8.24998 5.31828 8.24998H7.69849C10.2636 8.24998 12.3417 10.3281 12.3417 12.8932C12.3417 13.3203 11.9954 13.6666 11.5683 13.6666H1.44849C1.0214 13.6666 0.675049 13.3203 0.675049 12.8932Z" fill="#919EAB"/>
</g>
</svg>
