<svg width="20" height="20" viewBox="0 0 20 20" fill="none" xmlns="http://www.w3.org/2000/svg">
<g id="Icon/headset">
<path id="Vector" d="M9.99996 3.22919C6.25973 3.22919 3.22913 6.25979 3.22913 10V11.3021C3.22913 11.735 2.88082 12.0834 2.44788 12.0834C2.01493 12.0834 1.66663 11.735 1.66663 11.3021V10C1.66663 5.39716 5.3971 1.66669 9.99996 1.66669C14.6028 1.66669 18.3333 5.39716 18.3333 10V14.6908C18.3333 16.2728 17.0507 17.5554 15.4655 17.5554L11.875 17.5521C11.6048 18.0176 11.1002 18.3334 10.5208 18.3334H9.47913C8.6165 18.3334 7.91663 17.6335 7.91663 16.7709C7.91663 15.9082 8.6165 15.2084 9.47913 15.2084H10.5208C11.1002 15.2084 11.6048 15.5241 11.875 15.9896L15.4687 15.9929C16.1881 15.9929 16.7708 15.4102 16.7708 14.6908V10C16.7708 6.25979 13.7402 3.22919 9.99996 3.22919ZM6.35413 8.43752H6.87496C7.45113 8.43752 7.91663 8.90302 7.91663 9.47919V13.125C7.91663 13.7012 7.45113 14.1667 6.87496 14.1667H6.35413C5.20504 14.1667 4.27079 13.2324 4.27079 12.0834V10.5209C4.27079 9.37177 5.20504 8.43752 6.35413 8.43752ZM13.6458 8.43752C14.7949 8.43752 15.7291 9.37177 15.7291 10.5209V12.0834C15.7291 13.2324 14.7949 14.1667 13.6458 14.1667H13.125C12.5488 14.1667 12.0833 13.7012 12.0833 13.125V9.47919C12.0833 8.90302 12.5488 8.43752 13.125 8.43752H13.6458Z" fill="#919EAB"/>
<path id="Vector_2" d="M9.99996 3.22919C6.25973 3.22919 3.22913 6.25979 3.22913 10V11.3021C3.22913 11.735 2.88082 12.0834 2.44788 12.0834C2.01493 12.0834 1.66663 11.735 1.66663 11.3021V10C1.66663 5.39716 5.39709 1.66669 9.99996 1.66669C14.6028 1.66669 18.3333 5.39716 18.3333 10V14.6908C18.3333 16.2728 17.0507 17.5554 15.4655 17.5554L11.875 17.5521C11.6048 18.0176 11.1002 18.3334 10.5208 18.3334H9.47913C8.6165 18.3334 7.91663 17.6335 7.91663 16.7709C7.91663 15.9082 8.6165 15.2084 9.47913 15.2084H10.5208C11.1002 15.2084 11.6048 15.5241 11.875 15.9896L15.4687 15.9929C16.1881 15.9929 16.7708 15.4102 16.7708 14.6908V10C16.7708 6.25979 13.7402 3.22919 9.99996 3.22919Z" fill="#919EAB"/>
</g>
</svg>
