<svg width="20" height="20" viewBox="0 0 20 20" fill="none" xmlns="http://www.w3.org/2000/svg">
<g id="Group 4250">
<path id="Vector" d="M0 8.69409C0 8.13066 0.233717 7.59645 0.651069 7.21666L8.64388 1.13585C9.41181 0.434698 10.5846 0.434698 11.3525 1.13585L19.3489 7.21665C19.7621 7.59644 20 8.13065 20 8.69407L18.0134 18.0525C17.6012 18.9429 17.1161 19.388 16.0102 19.388H3.98624C2.88025 19.388 2.4652 19.388 1.98294 18.0525L0 8.69409ZM7.99281 13.1556V15.8266C7.99281 16.3817 8.43938 16.717 8.99446 16.717H10.9977C11.5528 16.717 11.9994 16.3817 11.9994 15.8266V13.1556C11.9994 12.6005 11.5528 12.2652 10.9977 12.2652H8.99446C8.43938 12.2652 7.99281 12.6005 7.99281 13.1556Z" fill="currentColor"/>
</g>
</svg>
