<svg width="24" height="24" viewBox="0 0 24 24" fill="none" xmlns="http://www.w3.org/2000/svg">
<g id="Icon/microphone">
<path id="Vector" d="M8.245 5.75V12C8.245 14.0703 9.92468 15.75 11.995 15.75C14.0653 15.75 15.745 14.0703 15.745 12H12.62C12.2762 12 11.995 11.7188 11.995 11.375C11.995 11.0312 12.2762 10.75 12.62 10.75H15.745V9.5H12.62C12.2762 9.5 11.995 9.21875 11.995 8.875C11.995 8.53125 12.2762 8.25 12.62 8.25H15.745V7H12.62C12.2762 7 11.995 6.71875 11.995 6.375C11.995 6.03125 12.2762 5.75 12.62 5.75H15.745C15.745 3.67969 14.0653 2 11.995 2C9.92468 2 8.245 3.67969 8.245 5.75ZM16.995 11.375V12C16.995 14.7617 14.7567 17 11.995 17C9.23328 17 6.995 14.7617 6.995 12V10.4375C6.995 9.91797 6.57703 9.5 6.0575 9.5C5.53796 9.5 5.12 9.91797 5.12 10.4375V12C5.12 15.4805 7.70593 18.3555 11.0575 18.8125V20.125H9.1825C8.66296 20.125 8.245 20.543 8.245 21.0625C8.245 21.582 8.66296 22 9.1825 22H11.995H14.8075C15.327 22 15.745 21.582 15.745 21.0625C15.745 20.543 15.327 20.125 14.8075 20.125H12.9325V18.8125C16.2841 18.3555 18.87 15.4805 18.87 12V10.4375C18.87 9.91797 18.452 9.5 17.9325 9.5C17.413 9.5 16.995 9.91797 16.995 10.4375V11.375Z" fill="#C4CDD5"/>
</g>
</svg>
