<svg width="20" height="20" viewBox="0 0 20 20" fill="none" xmlns="http://www.w3.org/2000/svg">
<g id="Icon/feed-1">
<path id="Vector" d="M4.04758 1.66669C2.73433 1.66669 1.66663 2.7344 1.66663 4.04764V15.9524C1.66663 17.2656 2.73433 18.3334 4.04758 18.3334H15.9523C17.2656 18.3334 18.3333 17.2656 18.3333 15.9524V4.04764C18.3333 2.7344 17.2656 1.66669 15.9523 1.66669H4.04758ZM5.23805 5.53573C5.23805 5.04094 5.63612 4.64288 6.13091 4.64288C11.2276 4.64288 15.3571 8.77234 15.3571 13.8691C15.3571 14.3639 14.959 14.7619 14.4642 14.7619C13.9695 14.7619 13.5714 14.3639 13.5714 13.8691C13.5714 9.75821 10.2418 6.42859 6.13091 6.42859C5.63612 6.42859 5.23805 6.03053 5.23805 5.53573ZM5.23805 9.10716C5.23805 8.61237 5.63612 8.21431 6.13091 8.21431C9.25219 8.21431 11.7857 10.7478 11.7857 13.8691C11.7857 14.3639 11.3876 14.7619 10.8928 14.7619C10.398 14.7619 9.99996 14.3639 9.99996 13.8691C9.99996 11.7337 8.26633 10 6.13091 10C5.63612 10 5.23805 9.60196 5.23805 9.10716ZM7.61901 13.5714C7.61901 14.2299 7.08701 14.7619 6.42853 14.7619C5.77005 14.7619 5.23805 14.2299 5.23805 13.5714C5.23805 12.913 5.77005 12.381 6.42853 12.381C7.08701 12.381 7.61901 12.913 7.61901 13.5714Z" fill="#919EAB"/>
</g>
</svg>
